<svg width="20" height="28" viewBox="0 0 20 28" fill="none" xmlns="http://www.w3.org/2000/svg">
<path d="M7.82916 0V4.06365H20V6.28159H7.82916V16.6889C7.82916 17.361 7.96875 17.8676 8.24793 18.2089C8.52711 18.5398 9.00276 18.7052 9.67486 18.7052C10.0057 18.7052 10.4607 18.6432 11.0398 18.5191V20.8456C10.2849 21.0524 9.55078 21.1558 8.83732 21.1558C7.55515 21.1558 6.58835 20.768 5.93693 19.9925C5.2855 19.217 4.95979 18.1158 4.95979 16.6889V6.28159H0V4.06365H4.95979V0H7.82916Z" fill="#233F4F"/>
<path d="M18.495 4.375V23.0957C18.495 26.3218 17.0318 27.9349 14.1056 27.9349C13.4749 27.9349 12.8907 27.8418 12.353 27.6557V25.3602C12.6838 25.4429 13.1181 25.4843 13.6558 25.4843C14.2969 25.4843 14.7829 25.3085 15.1138 24.9569C15.455 24.6157 15.6256 24.016 15.6256 23.1577V4.375H18.495Z" fill="#233F4F"/>
</svg>
