<svg width="20" height="28" viewBox="0 0 20 28" fill="none" xmlns="http://www.w3.org/2000/svg">
<path d="M7.82916 0V4.07312H20V6.29624H7.82916V16.7278C7.82916 17.4015 7.96875 17.9093 8.24793 18.2513C8.52711 18.583 9.00276 18.7488 9.67486 18.7488C10.0057 18.7488 10.4607 18.6866 11.0398 18.5623V20.8942C10.2849 21.1015 9.55078 21.2051 8.83732 21.2051C7.55515 21.2051 6.58835 20.8165 5.93693 20.0392C5.2855 19.2618 4.95979 18.1581 4.95979 16.7278V6.29624H0V4.07312H4.95979V0H7.82916Z" fill="#233F4F"/>
<path d="M18.495 4.38525V23.1496C18.495 26.3832 17.0318 28.0001 14.1056 28.0001C13.4749 28.0001 12.8907 27.9068 12.353 27.7202V25.4194C12.6838 25.5023 13.1181 25.5437 13.6558 25.5437C14.2969 25.5437 14.7829 25.3675 15.1138 25.0152C15.455 24.6731 15.6256 24.072 15.6256 23.2118V4.38525H18.495Z" fill="#233F4F"/>
</svg>
